<ttFont>
<head>
    <!-- Most of this table will be recalculated by the compiler -->
    <tableVersion value="1.0"/>
    <fontRevision value="1.004"/>
    <checkSumAdjustment value="0x2534784a"/>
    <magicNumber value="0x5f0f3cf5"/>
    <flags value="00000000 00000011"/>
    <unitsPerEm value="1000"/>
    <created value="Mon Jun 15 05:18:06 2015"/>
    <modified value="Thu Jun  6 21:34:30 2019"/>
    <xMin value="-56"/>
    <yMin value="-549"/>
    <xMax value="1000"/>
    <yMax value="1323"/>
    <macStyle value="00000000 00000000"/>
    <lowestRecPPEM value="3"/>
    <fontDirectionHint value="2"/>
    <indexToLocFormat value="0"/>
    <glyphDataFormat value="0"/>
  </head>
              <CharString index="0">
                -27 -135 -56 -86 callsubr
                17 -28 8 -18 41 64 39 102 30 106 rrcurveto
                -462 67 return
              </CharString>
              <CharString index="1">
                -94 callsubr
                65 -27 78 -45 return
              </CharString>
              <CharString index="2">
                -100 callsubr
                -89 -461 rmoveto
                55 93 66 125 -96 callsubr
                return
              </CharString>
              <CharString index="3">
                -99 callsubr
                469 vlineto
                28 -50 33 -64 14 -32 rrcurveto
                return
              </CharString>
              <CharString index="4">
                rmoveto
                -91 callgsubr
                return
              </CharString>
              <CharString index="5">
                -54 -114 -83 callsubr
                return
              </CharString>
              <CharString index="6">
                -108 -102 callgsubr
                -74 -75 callsubr
                -98 callgsubr
                -174 64 174 return
              </CharString>
              <CharString index="7">
                rmoveto
                -40 33 -97 callsubr
                return
              </CharString>
              <CharString index="8">
                216 -67 -98 callsubr
                return
              </CharString>
              <CharString index="9">
                -216 -126 -68 119 vlineto
                -107 callsubr
                return
              </CharString>
              <CharString index="10">
                -80 -106 callsubr
                39 -34 rrcurveto
                return
              </CharString>
              <CharString index="11">
                49 106 -56 46 rcurveline
                -102 callsubr
                rrcurveto
                return
              </CharString>
              <CharString index="12">
                hlineto
                -245 vmoveto
                return
              </CharString>
              <CharString index="13">
                42 -63 25 -41 -56 rcurveline
                return
              </CharString>
              <CharString index="14">
                -201 -105 callsubr
                return
              </CharString>
              <CharString index="15">
                -35 callsubr
                227 hmoveto
                -88 89 88 -90 callsubr
                -88 91 88 hlineto
                return
              </CharString>
              <CharString index="16">
                hlineto
                245 vmoveto
                return
              </CharString>
              <CharString index="17">
                hlineto
                -233 vmoveto
                return
              </CharString>
              <CharString index="18">
                63 -55 callsubr
                return
              </CharString>
              <CharString index="19">
                -16 27 -71 111 -26 37 return
              </CharString>
              <CharString index="20">
                -88 callsubr
                rrcurveto
                return
              </CharString>
              <CharString index="21">
                -66 callsubr
                -16 return
              </CharString>
              <CharString index="22">
                rrcurveto
                10 1 22 0 vhcurveto
                return
              </CharString>
              <CharString index="23">
                hstemhm
                74 55 81 63 -58 53 88 58 return
              </CharString>
              <CharString index="24">
                -73 -131 -50 -78 return
              </CharString>
              <CharString index="25">
                -294 rmoveto
                65 vlineto
                return
              </CharString>
              <CharString index="26">
                76 -96 -76 -91 callsubr
                76 -95 -76 hlineto
                return
              </CharString>
              <CharString index="27">
                hlineto
                -71 callsubr
                return
              </CharString>
              <CharString index="28">
                -119 -69 119 return
              </CharString>
              <CharString index="29">
                -103 callgsubr
                -13 -1 return
              </CharString>
              <CharString index="30">
                -27 3 -18 71 -1 44 1 29 11 rrcurveto
                27 11 -104 callgsubr
                return
              </CharString>
              <CharString index="31">
                -80 callsubr
                -13 return
              </CharString>
              <CharString index="32">
                -64 callsubr
                -81 return
              </CharString>
              <CharString index="33">
                -8 -2 -2 -8 vhcurveto
                return
              </CharString>
              <CharString index="34">
                rmoveto
                77 -96 -77 -91 callsubr
                77 -95 -77 hlineto
                return
              </CharString>
              <CharString index="35">
                -141 74 154 65 -154 return
              </CharString>
              <CharString index="36">
                -12 -4 -4 -14 -1 vhcurveto
                return
              </CharString>
              <CharString index="37">
                64 -95 callgsubr
                return
              </CharString>
              <CharString index="38">
                340 708 rmoveto
                -189 -187 189 vlineto
                -456 vmoveto
                199 187 -199 vlineto
                69 -69 rmoveto
                592 -326 -684 70 92 vlineto
                return
              </CharString>
              <CharString index="39">
                49 -51 33 -44 -50 rcurveline
                52 -37 68 -52 return
              </CharString>
              <CharString index="40">
                -77 95 77 -95 callsubr
                -77 96 77 hlineto
                return
              </CharString>
              <CharString index="41">
                -158 -57 -83 12 return
              </CharString>
              <CharString index="42">
                4 -19 rrcurveto
                69 44 0 11 27 hvcurveto
                28 11 9 18 39 vvcurveto
                return
              </CharString>
              <CharString index="43">
                -136 -345 136 return
              </CharString>
              <CharString index="44">
                -107 callgsubr
                -9 return
              </CharString>
              <CharString index="45">
                8 -42 callsubr
                return
              </CharString>
              <CharString index="46">
                27 1 27 24 vvcurveto
                return
              </CharString>
              <CharString index="47">
                7 -44 callsubr
                return
              </CharString>
              <CharString index="48">
                -174 66 174 return
              </CharString>
              <CharString index="49">
                579 -103 callsubr
                -185 -58 -77 callgsubr
                -11 -59 -16 -53 -18 -47 -26 37 -27 35 -28 31 return
              </CharString>
              <CharString index="50">
                -68 callsubr
                37 -31 rrcurveto
                -6 -192 rmoveto
                -37 26 -75 41 -52 28 -37 return
              </CharString>
              <CharString index="51">
                -74 71 186 69 -10 68 141 68 -34 68 155 67 -51 70 hstemhm
                83 70 187 69 return
              </CharString>
              <CharString index="52">
                -29 77 -47 37 -36 return
              </CharString>
              <CharString index="53">
                10 5 10 rrcurveto
                endchar
              </CharString>
              <CharString index="54">
                -11 -4 -3 -11 -1 vhcurveto
                -10 -37 0 1 return
              </CharString>
              <CharString index="55">
                -12 -4 -3 -12 -1 vhcurveto
                -12 -1 -39 0 return
              </CharString>
              <CharString index="56">
                8 -23 3 -17 rrcurveto
                return
              </CharString>
              <CharString index="57">
                vhcurveto
                17 -8 31 -21 return
              </CharString>
              <CharString index="58">
                -19 12 -33 4 -20 rrcurveto
                85 55 2 11 32 hvcurveto
                32 13 10 23 47 vvcurveto
                endchar
              </CharString>
              <CharString index="59">
                -357 128 -77 -99 callgsubr
                -168 return
              </CharString>
              <CharString index="60">
                hmoveto
                -67 callsubr
                return
              </CharString>
              <CharString index="61">
                -49 -114 -68 -131 -48 -78 return
              </CharString>
              <CharString index="62">
                -175 vlineto
                414 vmoveto
                -171 return
              </CharString>
              <CharString index="63">
                -17 -51 callsubr
                return
              </CharString>
              <CharString index="64">
                -50 callsubr
                13 return
              </CharString>
              <CharString index="65">
                -16 9 -24 3 -16 return
              </CharString>
              <CharString index="66">
                -152 -64 152 return
              </CharString>
              <CharString index="67">
                -13 1 rrcurveto
                -14 -33 0 3 -36 hvcurveto
                return
              </CharString>
              <CharString index="68">
                -210 hlineto
                -89 -6 -116 return
              </CharString>
              <CharString index="69">
                -43 callsubr
                -13 return
              </CharString>
              <CharString index="70">
                147 64 -147 return
              </CharString>
              <CharString index="71">
                8 -25 3 -19 rrcurveto
                return
              </CharString>
              <CharString index="72">
                86 -91 -86 -105 callgsubr
                86 -89 -86 hlineto
                return
              </CharString>
              <CharString index="73">
                -74 95 74 -95 callsubr
                -74 96 74 hlineto
                return
              </CharString>
              <CharString index="74">
                150 65 -150 return
              </CharString>
        <CharString name=".notdef" fdSelectIndex="0">
          endchar
        </CharString>
        <CharString name="cid17373" fdSelectIndex="1">
          208 61 63 60 105 61 112 68 hstem
          124 70 193 71 33 76 133 72 cntrmask 11111101
          940 670 rmoveto
          68 -373 98 -76 -98 -367 -286 vlineto
          -144 -7 -202 -82 -142 -38 callsubr
          rrcurveto
          86 151 12 225 154 vvcurveto
          218 vlineto
          506 -173 rmoveto
          -105 -242 105 vlineto
          314 -165 rmoveto
          165 161 61 -161 87 -72 -87 -242 87 -71 -87 -159 -61 159 -165 vlineto
          369 -124 rmoveto
          -41 -53 -59 -41 -69 -33 -68 34 -56 42 -38 51 rrcurveto
          393 -70 callsubr
          -565 -61 -83 callgsubr
          -40 -15 40 -57 53 -48 64 -38 rlinecurve
          -94 -33 -106 -20 -108 -11 11 -16 15 -28 5 -18 124 15 122 27 106 44 95 -44 112 -28 122 -16 8 19 19 29 16 15 -107 11 -100 21 -87 31 86 49 70 64 45 86 rrcurveto
          endchar
        </CharString>
        <CharString name="cid17374" fdSelectIndex="1">
          204 61 64 60 105 62 112 69 hstem
          129 73 185 71 242 73 cntrmask 11111110
          202 668 rmoveto
          743 69 -347 hlineto
          -12 32 -20 41 -19 32 -73 -18 rcurveline
          14 -26 14 -33 12 -28 rrcurveto
          -385 -269 hlineto
          -149 -8 -212 -81 -150 vhcurveto
          18 -6 34 -16 14 -12 rrcurveto
          84 157 12 229 159 vvcurveto
          498 26 rmoveto
          -105 -242 105 vlineto
          315 -165 rmoveto
          165 161 62 -161 86 -73 -86 -242 86 -71 -86 -160 -62 160 -165 vlineto
          367 -125 rmoveto
          -43 -52 -62 -41 -71 -31 -71 33 -58 41 -40 50 rrcurveto
          410 65 -106 callgsubr
          -565 -61 -88 callgsubr
          -35 -14 41 -57 54 -46 66 -38 rlinecurve
          -93 -30 -105 -18 -106 -10 12 -16 14 -29 6 -17 123 14 121 25 106 41 99 -43 117 -29 125 -14 9 19 18 30 15 15 -110 10 -102 20 -88 30 88 48 73 63 46 85 rrcurveto
          endchar
        </CharString>
        <CharString name="cid20679" fdSelectIndex="1">
          -56 callsubr
          92 72 279 72 cntrmask 1010101111100000
          cntrmask 0101010000000000
          hintmask 0101010110000000
          -69 callsubr
          hintmask 1010101001100000
          414 127 rmoveto
          5 45 1 44 41 vvcurveto
          45 279 -45 callsubr
          -279 171 vlineto
          351 70 rmoveto
          -423 -354 hlineto
          -155 -17 -188 -168 -129 vhcurveto
          15 -10 28 -25 12 -16 113 87 51 119 22 119 rrcurveto
          295 -220 hlineto
          -18 -7 -6 -19 -1 vhcurveto
          -16 -63 -1 2 -65 hvcurveto
          12 -49 callsubr
        </CharString>
        <CharString name="cid20680" fdSelectIndex="1">
          -75 72 186 69 -10 68 140 68 -33 68 154 68 -51 70 hstemhm
          83 70 163 70 120 73 264 73 cntrmask 1010101111100000
          cntrmask 0101010000000000
          hintmask 0101010110000000
          316 707 rmoveto
          -189 -163 189 vlineto
          -455 vmoveto
          198 163 -198 vlineto
          70 -69 rmoveto
          592 -303 -684 70 92 vlineto
          hintmask 1010101001100000
          420 127 rmoveto
          5 45 1 44 41 vvcurveto
          45 264 -45 callsubr
          -264 171 vlineto
          337 70 rmoveto
          -410 -354 hlineto
          -154 -17 -189 -159 -130 vhcurveto
          16 -9 29 -26 10 -14 107 87 50 119 21 118 rrcurveto
          280 -221 hlineto
          -17 -7 -6 -17 -1 vhcurveto
          -18 -63 -1 2 -63 hvcurveto
          11 -20 12 -32 3 -21 rrcurveto
          85 55 2 12 33 hvcurveto
          31 13 11 22 47 vvcurveto
          endchar
        </CharString>
        <CharString name="cid22128" fdSelectIndex="1">
          -42 64 33 56 97 54 194 54 16 59 -32 68 -53 57 107 64 hstemhm
          181 67 117 54 83 55 70 64 cntrmask 1011000111100000
          cntrmask 1100001100000000
          cntrmask 1000100100000000
          hintmask 1111001101110000
          536 543 rmoveto
          8 25 rlineto
          83 hlineto
          -4 -312 -5 -109 -16 -23 -7 -11 -8 -3 -40 callsubr
          10 -17 7 -24 1 -18 35 -3 36 1 22 2 24 3 17 7 15 21 23 35 5 113 5 359 -85 callsubr
          -131 hlineto
          10 34 10 38 9 35 rrcurveto
          351 64 -594 -64 174 hlineto
          -14 -62 -21 -69 -17 -49 rrcurveto
          33 -290 rmoveto
          -83 194 83 hlineto
          55 54 rmoveto
          -192 -367 54 65 -86 callgsubr
          -196 94 rmoveto
          hintmask 1000010010000000
          -87 callsubr
          76 108 68 -108 -104 callsubr
          7 -290 rmoveto
          628 64 -628 hlineto
          hintmask 0000100000010000
          569 564 rmoveto
          -6 -1 rlineto
          -173 -59 150 hlineto
          -11 -75 -18 -68 -25 -58 -24 54 -18 61 -13 63 -50 -12 rcurveline
          16 -84 25 -79 33 -69 -30 -53 -36 -43 -40 -28 14 -10 18 -21 9 -15 37 28 33 36 29 45 30 -47 35 -39 41 -28 10 17 20 24 14 11 -46 27 -39 42 -32 52 rrcurveto
          41 84 29 106 14 130 rrcurveto
          endchar
        </CharString>
        <CharString name="cid22129" fdSelectIndex="1">
          -30 65 31 61 92 55 234 58 -47 58 1 70 75 65 hstemhm
          166 64 111 48 83 50 53 65 cntrmask 1011001111100000
          cntrmask 1101000000000000
          cntrmask 1000101000000000
          hintmask 1110101111100000
          881 -58 callsubr
          -45 -32 rcurveline
          34 -40 33 -46 31 -47 -34 -63 -42 -51 -48 -35 12 -9 22 -24 9 -15 44 35 40 47 33 59 29 -46 23 -45 16 -35 48 37 rcurveline
          -19 43 -30 52 -35 54 32 74 25 88 14 103 rrcurveto
          -342 -424 rmoveto
          -12 -4 -3 -12 -1 vhcurveto
          -14 -41 -1 2 -47 hvcurveto
          9 -18 -36 callsubr
          61 43 1 10 26 hvcurveto
          24 11 9 17 38 vvcurveto
          442 vlineto
          93 42 99 65 67 64 -46 35 rcurveline
          -15 -3 rlineto
          -490 -65 414 hlineto
          -54 -40 -70 -40 -63 -27 rrcurveto
          hintmask 0011000111000000
          -103 -108 rmoveto
          -234 -83 234 vlineto
          -289 vmoveto
          83 -34 50 381 -181 -407 48 hlineto
          -61 -84 callgsubr
          hintmask 1000010100000000
          -13 26 -61 100 -24 34 rrcurveto
          52 89 70 -89 190 -64 -190 -112 -70 -87 callgsubr
          -24 -135 -54 -162 -56 -83 13 -18 16 -32 8 -22 36 61 36 93 27 100 rrcurveto
          -454 64 509 vlineto
          23 -44 23 -50 11 -28 rrcurveto
          5 -278 rmoveto
          -65 658 -92 callgsubr
        </CharString>
        <CharString name="cid22130" fdSelectIndex="1">
          -32 67 32 58 80 55 234 58 -18 59 -12 67 -62 59 102 65 hstemhm
          164 66 111 48 85 50 98 67 cntrmask 1100001111100000
          cntrmask 1011000100000000
          cntrmask 1000100100000000
          hintmask 1111001111110000
          941 -90 callgsubr
          -18 43 -28 54 -35 54 rrcurveto
          hintmask 0000100000010000
          30 73 22 87 13 101 -37 12 rcurveline
          -13 -1 rlineto
          -167 -59 -89 callgsubr
          -9 -55 -13 -49 -15 -45 -23 33 -24 32 -23 29 -45 -33 rcurveline
          29 -38 31 -44 28 -45 -31 -68 -41 -53 -47 -37 15 -10 22 -25 9 -14 43 36 37 47 31 60 26 -44 20 -44 14 -34 rrcurveto
          hintmask 0111001111110000
          -268 453 rmoveto
          -4 -314 -6 -109 -15 -25 -7 -11 -8 -3 -12 1 rrcurveto
          -15 -32 0 3 -36 hvcurveto
          11 -17 5 -26 1 -18 36 -3 36 1 23 2 24 3 17 8 15 21 23 35 5 115 5 363 rrcurveto
          1 8 0 25 0 vvcurveto
          -115 hlineto
          12 32 12 36 10 34 rrcurveto
          327 65 -599 -65 204 hlineto
          -16 -55 -21 -62 -18 -44 rrcurveto
          -96 -326 rmoveto
          234 85 -234 vlineto
          50 -91 rmoveto
          383 -183 -407 48 60 85 -36 vlineto
          -146 198 rmoveto
          hintmask 1000010010000000
          -13 25 -61 100 -24 34 rrcurveto
          55 85 67 -85 190 -66 -190 -107 -67 107 -3 vlineto
          -25 -135 -53 -162 -56 -83 12 -18 17 -32 8 -22 35 59 35 91 27 97 rrcurveto
          -447 66 509 vlineto
          23 -44 23 -50 11 -28 rrcurveto
          5 -278 rmoveto
          -67 658 -94 callgsubr
        </CharString>
        <CharString name="cid24160" fdSelectIndex="1">
          -72 63 113 54 75 53 73 58 56 58 69 54 63 55 hstem
          403 69 119 74 146 70 cntrmask 1111111101000000
          311 721 rmoveto
          -38 36 -79 44 -62 27 -41 -54 rcurveline
          -89 callsubr
          rrcurveto
          -3 -93 callsubr
          401 173 rmoveto
          75 339 -75 vlineto
          201 vmoveto
          -73 -339 73 vlineto
          409 58 rmoveto
          -478 -491 69 178 339 -96 hlineto
          -13 -5 -4 -14 vhcurveto
          -14 -1 -47 0 -51 1 10 -17 10 -28 2 -18 rrcurveto
          71 45 1 10 28 hvcurveto
          27 10 8 20 38 vvcurveto
          -216 524 rmoveto
          69 236 54 -236 63 260 55 -260 65 -74 -65 -247 -55 247 -63 -223 -54 223 -69 -280 -58 647 58 vlineto
          endchar
        </CharString>
        <CharString name="cid24161" fdSelectIndex="1">
          -72 63 88 56 78 55 74 58 57 57 70 54 63 57 hstem
          362 69 144 73 142 71 cntrmask 1111111101000000
          288 718 rmoveto
          -34 31 -70 43 -55 28 -43 -51 rcurveline
          55 -31 68 -46 34 -32 rrcurveto
          5 -209 rmoveto
          -37 33 -73 45 -56 28 -43 -52 rcurveline
          57 -31 72 -48 35 -32 rrcurveto
          -66 -457 rmoveto
          48 94 56 124 43 106 -59 44 rcurveline
          -46 -114 -64 -132 -45 -78 rrcurveto
          361 154 rmoveto
          78 359 -78 vlineto
          207 vmoveto
          -74 -359 74 vlineto
          430 58 rmoveto
          -499 -476 69 155 359 -71 -78 callsubr
          -48 0 -50 2 9 -19 9 -77 callsubr
          -213 507 rmoveto
          70 238 54 -238 63 262 57 -262 78 -73 -78 -255 -57 255 -63 -231 -54 231 -70 -292 -57 663 57 vlineto
          endchar
        </CharString>
        <CharString name="cid24162" fdSelectIndex="1">
          -74 63 96 54 78 52 78 56 60 57 74 55 67 56 hstem
          375 73 140 73 142 75 cntrmask 1111111101000000
          290 708 rmoveto
          -36 31 -70 -57 callsubr
          -57 rcurveline
          54 -30 72 -43 37 -28 rrcurveto
          -80 -456 rmoveto
          52 92 61 126 46 104 -54 43 rcurveline
          -46 callsubr
          rrcurveto
          383 157 rmoveto
          2 -61 callsubr
          355 -78 hlineto
          208 vmoveto
          -78 -355 78 vlineto
          430 56 rmoveto
          -503 -182 hlineto
          -78 -5 -99 -55 -75 vhcurveto
          16 -9 29 -28 11 -16 37 48 20 60 9 61 rrcurveto
          366 -79 -76 callsubr
          -47 0 1 -47 hvcurveto
          9 -18 10 -27 -65 callsubr
          -217 515 rmoveto
          74 246 55 -246 67 277 56 -277 65 -73 -65 -277 -56 277 -67 -252 -55 252 -74 -309 -57 678 57 vlineto
          endchar
        </CharString>
        <CharString name="cid26847" fdSelectIndex="1">
          338 68 7 69 100 68 49 70 hstemhm
          176 71 384 71 cntrmask 10101100
          cntrmask 01010000
          hintmask 10111100
          377 197 rmoveto
          -44 -14 -44 -13 -42 -12 rrcurveto
          hintmask 01111100
          255 -96 callgsubr
          217 134 70 -331 -70 126 -217 -79 callsubr
          -276 vlineto
          -49 -14 -45 -11 -36 -10 15 -72 rcurveline
          325 98 rlineto
          hintmask 10111100
          571 210 rmoveto
          68 -255 176 206 68 -206 186 -71 -186 -112 vlineto
          11 40 9 44 7 45 -69 12 rcurveline
          hintmask 01111100
          -17 -122 -32 -118 -53 -78 18 -8 29 -18 14 -11 25 40 21 50 19 56 rrcurveto
          130 hlineto
          hintmask 10111100
          -176 -252 -68 217 vlineto
          -62 -127 -106 -124 -106 -62 15 -13 24 -26 11 -17 96 65 97 113 66 125 rrcurveto
          -348 71 352 vlineto
          59 -117 82 -113 80 -66 13 19 24 25 16 13 -90 63 -95 119 -56 119 rrcurveto
          endchar
        </CharString>
        <CharString name="cid40016" fdSelectIndex="1">
          -75 53 -51 56 114 66 -43 56 67 56 -40 53 77 56 77 60 -49 56 76 64 hstemhm
          70 56 81 66 -58 50 90 57 46 55 113 55 56 55 79 61 cntrmask 100101101111001111000000
          cntrmask 001010100000111000000000
          cntrmask 010000010000000000000000
          hintmask 011010110111011111000000
          126 390 rmoveto
          hintmask 000010101010110000000000
          89 -91 -89 hlineto
          234 vmoveto
          89 -90 -89 hlineto
          229 hmoveto
          -90 90 90 hlineto
          -234 vmoveto
          -90 91 90 hlineto
          hintmask 001010001111010000000000
          -82 -147 rmoveto
          139 346 -139 76 -97 callgsubr
          108 -66 -108 -41 callsubr
          -76 -137 -346 137 -80 -74 callgsubr
          -59 callsubr
          -76 callgsubr
          hlineto
          hintmask 100101110000001110000000
          240 13 rmoveto
          83 113 -83 vlineto
          213 vmoveto
          -77 -113 77 vlineto
          168 56 rmoveto
          -223 -518 55 193 113 -79 callgsubr
          -7 -2 -3 -7 vhcurveto
          -50 hlineto
          6 -15 8 -24 1 -14 rrcurveto
          37 24 0 10 17 hvcurveto
          16 10 5 16 26 vvcurveto
          149 595 rmoveto
          -275 -60 275 hlineto
          -38 -98 rmoveto
          -55 -350 55 hlineto
          hintmask 010000001000000001000000
          79 -77 rmoveto
          -11 -4 -2 -11 -1 vhcurveto
          -11 -1 -37 0 -41 1 8 -16 8 -25 3 -15 rrcurveto
          58 35 1 8 24 hvcurveto
          22 11 7 17 32 vvcurveto
          465 -61 vlineto
          -214 372 rmoveto
          -47 -94 -95 -109 -101 -59 12 -17 17 -26 8 -18 101 64 91 102 50 88 56 -89 97 -99 92 -58 11 20 16 28 13 16 -93 51 -100 99 -62 101 rrcurveto
          endchar
        </CharString>
        <CharString name="cid40017" fdSelectIndex="1">
          -67 56 -53 53 103 65 -21 56 42 56 -11 53 54 54 -26 56 59 62 75 64 hstemhm
          75 58 71 66 -61 56 77 59 53 58 114 58 56 54 75 60 cntrmask 010101011111001111000000
          cntrmask 001010101000111000000000
          hintmask 000010101010110000000000
          133 386 rmoveto
          -81 callsubr
          209 -47 callsubr
          hintmask 001010001111010000000000
          -72 -152 rmoveto
          131 357 -131 75 149 64 -149 106 -66 -106 -148 -64 148 -75 -129 -357 129 -77 -101 callgsubr
          -168 66 168 -33 callsubr
          hlineto
          hintmask 010101010000001100000000
          242 35 rmoveto
          87 114 -87 vlineto
          222 vmoveto
          -82 -114 82 vlineto
          172 56 rmoveto
          -230 -546 58 212 114 -80 callgsubr
          -8 -3 -3 -8 -7 -21 0 1 -24 vhcurveto
          6 -16 8 -23 2 -15 38 -1 26 1 17 10 rrcurveto
          19 10 5 16 28 vvcurveto
          hintmask 100000001000000011000000
          185 4 rmoveto
          -53 callsubr
          -40 hvcurveto
          -60 callsubr
          57 36 1 10 21 hvcurveto
          23 -100 callgsubr
          482 -60 vlineto
          -75 -38 rmoveto
          -54 -369 54 hlineto
          -116 761 rmoveto
          -57 -98 -105 -88 -110 -50 16 -13 17 -20 10 -14 19 9 18 10 18 12 rrcurveto
          -59 361 62 -356 vlineto
          65 42 62 53 48 61 70 -83 80 -58 93 -49 9 18 18 21 15 13 -97 44 -86 55 -69 84 6 9 5 8 5 8 rrcurveto
          endchar
        </CharString>
        <CharString name="cid40018" fdSelectIndex="1">
          -68 56 -53 55 102 65 -34 55 56 56 -22 55 63 54 -31 55 71 56 -53 58 70 64 hstemhm
          77 58 70 68 -61 54 74 59 61 58 113 57 60 54 64 56 cntrmask 100101010100011111100000
          cntrmask 001010101011100000000000
          hintmask 001010101001011000000000
          135 386 -73 callsubr
          205 hmoveto
          -34 callsubr
          80 -82 callsubr
          hintmask 001010001011101000000000
          -147 77 126 357 -128 75 -37 callsubr
          106 -65 -106 -150 -64 150 -75 -129 -48 callsubr
          68 -82 callgsubr
          hintmask 100101010100000111000000
          243 86 rmoveto
          1 26 1 27 23 vvcurveto
          14 113 -90 vlineto
          231 vmoveto
          -86 -113 86 vlineto
          170 55 rmoveto
          -228 -39 callsubr
          -53 -87 vhcurveto
          14 -6 24 -20 11 -11 35 57 17 72 9 69 rrcurveto
          120 -123 -63 callsubr
          -30 -1 1 -34 vhcurveto
          -62 callsubr
          rrcurveto
          46 30 1 10 20 hvcurveto
          20 10 6 17 30 vvcurveto
          138 596 rmoveto
          -268 -58 268 hlineto
          -24 -92 rmoveto
          -54 -357 54 hlineto
          hintmask 010000001000000000100000
          64 -83 rmoveto
          -52 callsubr
          -46 1 -75 callgsubr
          rrcurveto
          59 37 0 10 24 hvcurveto
          23 10 6 17 33 vvcurveto
          476 -56 vlineto
          -188 362 rmoveto
          -55 -106 -102 -100 -107 -56 17 -14 20 -22 11 -17 86 51 80 74 60 86 65 -88 76 -63 90 -54 10 19 18 21 17 14 -95 51 -82 61 -66 91 6 10 6 -54 callsubr
        </CharString>
        <CharString name="cid61767" fdSelectIndex="1">
          -77 57 117 66 81 56 79 58 -46 53 64 61 -36 56 74 65 2 65 -84 callsubr
          40 56 42 11 62 57 cntrmask 1110101101100101
          cntrmask 1001010010011010
          hintmask 0010101001011000
          129 391 rmoveto
          -92 callsubr
          hintmask 0010010010101010
          -82 -147 rmoveto
          140 283 hlineto
          15 -11 16 -19 9 -14 37 23 32 26 29 26 rrcurveto
          -50 261 61 -250 vlineto
          52 51 39 55 28 55 rrcurveto
          16 hlineto
          48 -98 81 -87 83 -52 12 15 26 21 17 11 -90 50 -92 97 -41 -78 callgsubr
          -254 -65 -85 callgsubr
          hintmask 1111001101101111
          -39 -69 -64 -72 -90 -54 rrcurveto
          54 -72 callsubr
          108 -63 -101 callsubr
          -76 callgsubr
          vlineto
          236 15 rmoveto
          119 vlineto
          33 -20 36 -28 19 -21 27 25 rcurveline
          -123 vlineto
          -22 23 -36 28 -32 17 rrcurveto
          90 181 rmoveto
          -107 vlineto
          -22 21 -35 26 -31 15 -27 -23 rcurveline
          68 vlineto
          172 58 rmoveto
          -228 -513 56 236 hlineto
          33 -22 34 -30 18 -22 30 26 rcurveline
          -122 vlineto
          -74 callsubr
          -8 -1 -25 0 -29 1 8 -17 7 -25 2 -15 rrcurveto
          42 28 0 11 19 hvcurveto
          18 9 5 18 28 vvcurveto
          73 461 rmoveto
          -13 -65 -31 -105 -29 -82 43 -96 38 -109 13 -70 58 17 rcurveline
          -16 66 -40 107 -39 86 25 74 30 91 19 74 rrcurveto
          68 12 rmoveto
          -16 -65 -36 -105 -32 -82 51 -95 44 -110 18 -70 57 17 rcurveline
          -20 66 -47 108 -45 85 28 74 33 89 22 75 rrcurveto
          endchar
        </CharString>
      <CharString index="0">
        hlineto
        -9 -3 -3 -9 return
      </CharString>
      <CharString index="1">
        rmoveto
        -81 callgsubr
        return
      </CharString>
      <CharString index="2">
        hlineto
        233 vmoveto
        return
      </CharString>
      <CharString index="3">
        8 19 38 vvcurveto
        return
      </CharString>
      <CharString index="4">
        hlineto
        -13 -4 -4 -14 vhcurveto
        return
      </CharString>
      <CharString index="5">
        -155 -65 155 return
      </CharString>
      <CharString index="6">
        -157 -65 157 return
      </CharString>
      <CharString index="7">
        10 7 16 34 vvcurveto
        return
      </CharString>
      <CharString index="8">
        -158 -65 158 return
      </CharString>
      <CharString index="9">
        -168 -66 168 return
      </CharString>
      <CharString index="10">
        160 64 -160 return
      </CharString>
      <CharString index="11">
        116 69 -116 return
      </CharString>
      <CharString index="12">
        rmoveto
        -93 callgsubr
        return
      </CharString>
      <CharString index="13">
        67 vlineto
        endchar
      </CharString>
      <CharString index="14">
        -13 -3 rlineto
        return
      </CharString>
      <CharString index="15">
        65 vlineto
        endchar
      </CharString>
      <CharString index="16">
        -11 -2 rlineto
        return
      </CharString>
      <CharString index="17">
        170 rmoveto
        return
      </CharString>
      <CharString index="18">
        148 hlineto
        return
      </CharString>
      <CharString index="19">
        131 hlineto
        return
      </CharString>
      <CharString index="20">
        110 vlineto
        return
      </CharString>
      <CharString index="21">
        138 hlineto
        return
      </CharString>
      <CharString index="22">
        119 hlineto
        return
      </CharString>
      <CharString index="23">
        207 rmoveto
        return
      </CharString>
      <CharString index="24">
        154 hlineto
        return
      </CharString>
      <CharString index="25">
        168 hlineto
        return
      </CharString>
      <CharString index="26">
        -14 -4 rlineto
        return
      </CharString>
      <CharString index="27">
        -136 hlineto
        return
      </CharString>
      <CharString index="28">
        -132 hlineto
        return
      </CharString>
      <CharString index="29">
        108 rrcurveto
        return
      </CharString>
      <CharString index="30">
        166 hlineto
        return
      </CharString>
      <CharString index="31">
        157 66 -157 return
      </CharString>
      <CharString index="32">
        8 -16 9 -23 3 -16 return
      </CharString>
      <CharString index="33">
        -164 -66 164 return
      </CharString>
</ttFont>
